<svg width="100" height="100" viewBox="0 0 100 100" fill="none" xmlns="http://www.w3.org/2000/svg">
<rect width="100" height="100" rx="6" fill="#2589BD"/>
<path d="M50 31.5C50 26 50 30 50 23" stroke="#86888C"/>
<circle cx="50" cy="21" r="4" fill="#BED883"/>
<ellipse cx="50" cy="37" rx="11" ry="6" fill="#FCFAFA"/>
<rect x="29" y="35" width="42" height="30" fill="#C9C9CB"/>
<path d="M72 37.037V36C67.7514 36 65.4024 37.6906 62.9634 39.446C62.7167 39.6235 62.4689 39.8018 62.2183 39.979C59.5243 41.8839 56.3711 43.7778 50 43.7778C43.6289 43.7778 40.4757 41.8839 37.7817 39.979C37.5311 39.8018 37.2835 39.6236 37.0368 39.4461L37.0367 39.446C34.5977 37.6907 32.2486 36 28 36V37.037V62.963V64C32.2486 64 34.5976 62.3094 37.0366 60.554L37.0366 60.554C37.2834 60.3765 37.5311 60.1982 37.7817 60.021C40.4757 58.1161 43.6289 56.2222 50 56.2222C56.3711 56.2222 59.5243 58.1161 62.2183 60.021C62.4689 60.1982 62.7164 60.3763 62.9631 60.5538L62.9631 60.5539C65.4021 62.3092 67.7514 64 72 64V62.963V37.037Z" fill="#86888C"/>
<circle cx="30" cy="50" r="15" fill="#BED883"/>
<circle cx="30" cy="50" r="11" fill="#8FB339"/>
<circle cx="30" cy="50" r="3" fill="#BED883"/>
<circle cx="30" cy="50" r="6" fill="#292F36"/>
<circle cx="70" cy="50" r="15" fill="#BED883"/>
<circle cx="70" cy="50" r="11" fill="#8FB339"/>
<circle cx="70" cy="50" r="6" fill="#292F36"/>
</svg>
